<svg width="16" height="24" viewBox="0 0 16 24" fill="none" xmlns="http://www.w3.org/2000/svg">
<path d="M6.25 8.96393H7.40469V14.2499C7.40469 14.3186 7.46094 14.3749 7.52969 14.3749H8.46719C8.53594 14.3749 8.59219 14.3186 8.59219 14.2499V8.96393H9.75C9.85469 8.96393 9.9125 8.84362 9.84844 8.76237L8.09844 6.54674C8.08674 6.5318 8.0718 6.51972 8.05475 6.51141C8.03769 6.5031 8.01897 6.49878 8 6.49878C7.98103 6.49878 7.96231 6.5031 7.94525 6.51141C7.92819 6.51972 7.91326 6.5318 7.90156 6.54674L6.15156 8.7608C6.0875 8.84362 6.14531 8.96393 6.25 8.96393ZM13.7188 13.7811H12.7812C12.7125 13.7811 12.6562 13.8374 12.6562 13.9061V16.3124H3.34375V13.9061C3.34375 13.8374 3.2875 13.7811 3.21875 13.7811H2.28125C2.2125 13.7811 2.15625 13.8374 2.15625 13.9061V16.9999C2.15625 17.2764 2.37969 17.4999 2.65625 17.4999H13.3438C13.6203 17.4999 13.8438 17.2764 13.8438 16.9999V13.9061C13.8438 13.8374 13.7875 13.7811 13.7188 13.7811Z" fill="#595959"/>
</svg>
