<svg width="16" height="16" viewBox="0 0 16 16" fill="none" xmlns="http://www.w3.org/2000/svg">
<path d="M12.1766 3.0718C10.7047 1.59993 8.30783 1.59993 6.83751 3.0718L2.75939 7.1468C2.73283 7.17336 2.71876 7.2093 2.71876 7.2468C2.71876 7.2843 2.73283 7.32024 2.75939 7.3468L3.33595 7.92336C3.36231 7.9496 3.39798 7.96433 3.43517 7.96433C3.47236 7.96433 3.50804 7.9496 3.53439 7.92336L7.61251 3.84836C8.11876 3.34211 8.7922 3.06399 9.50783 3.06399C10.2235 3.06399 10.8969 3.34211 11.4016 3.84836C11.9078 4.35461 12.186 5.02805 12.186 5.74211C12.186 6.45774 11.9078 7.12961 11.4016 7.63586L7.24533 11.7906L6.57189 12.464C5.9422 13.0937 4.91876 13.0937 4.28908 12.464C3.98439 12.1593 3.8172 11.7546 3.8172 11.3234C3.8172 10.8921 3.98439 10.4874 4.28908 10.1827L8.41251 6.06086C8.5172 5.95774 8.6547 5.89993 8.80158 5.89993H8.80314C8.95001 5.89993 9.08595 5.95774 9.18908 6.06086C9.29376 6.16555 9.35001 6.30305 9.35001 6.44993C9.35001 6.59524 9.2922 6.73274 9.18908 6.83586L5.81876 10.2031C5.7922 10.2296 5.77814 10.2656 5.77814 10.3031C5.77814 10.3406 5.7922 10.3765 5.81876 10.4031L6.39533 10.9796C6.42168 11.0059 6.45736 11.0206 6.49455 11.0206C6.53173 11.0206 6.56741 11.0059 6.59376 10.9796L9.96251 7.61086C10.2735 7.29993 10.4438 6.88743 10.4438 6.44836C10.4438 6.0093 10.2719 5.59524 9.96251 5.28586C9.32033 4.64368 8.27658 4.64524 7.63439 5.28586L7.23439 5.68743L3.51251 9.40774C3.25991 9.65886 3.05967 9.95764 2.92341 10.2867C2.78716 10.6159 2.7176 10.9687 2.71876 11.3249C2.71876 12.0484 3.00158 12.7281 3.51251 13.239C4.0422 13.7671 4.73595 14.0312 5.4297 14.0312C6.12345 14.0312 6.8172 13.7671 7.34533 13.239L12.1766 8.41086C12.8875 7.69836 13.2813 6.74993 13.2813 5.74211C13.2828 4.73274 12.8891 3.7843 12.1766 3.0718Z" fill="#8C8C8C"/>
</svg>
