<svg width="16" height="16" viewBox="0 0 16 16" fill="none" xmlns="http://www.w3.org/2000/svg">
<path d="M10.75 4.125C10.75 4.05625 10.6938 4 10.625 4H4.625C4.55625 4 4.5 4.05625 4.5 4.125V4.875C4.5 4.94375 4.55625 5 4.625 5H10.625C10.6938 5 10.75 4.94375 10.75 4.875V4.125ZM10.625 6.25H4.625C4.55625 6.25 4.5 6.30625 4.5 6.375V7.125C4.5 7.19375 4.55625 7.25 4.625 7.25H10.625C10.6938 7.25 10.75 7.19375 10.75 7.125V6.375C10.75 6.30625 10.6938 6.25 10.625 6.25ZM7.5 8.5H4.625C4.55625 8.5 4.5 8.55625 4.5 8.625V9.375C4.5 9.44375 4.55625 9.5 4.625 9.5H7.5C7.56875 9.5 7.625 9.44375 7.625 9.375V8.625C7.625 8.55625 7.56875 8.5 7.5 8.5ZM6.75 13.3125H3.25V2.3125H12V7.6875C12 7.75625 12.0563 7.8125 12.125 7.8125H13C13.0688 7.8125 13.125 7.75625 13.125 7.6875V1.6875C13.125 1.41094 12.9016 1.1875 12.625 1.1875H2.625C2.34844 1.1875 2.125 1.41094 2.125 1.6875V13.9375C2.125 14.2141 2.34844 14.4375 2.625 14.4375H6.75C6.81875 14.4375 6.875 14.3812 6.875 14.3125V13.4375C6.875 13.3687 6.81875 13.3125 6.75 13.3125ZM12.325 12.15C12.7781 11.7391 13.0625 11.1453 13.0625 10.4844C13.0625 9.24219 12.0547 8.23437 10.8125 8.23437C9.57031 8.23437 8.5625 9.24219 8.5625 10.4844C8.5625 11.1453 8.84688 11.7391 9.3 12.15C8.40938 12.6578 7.79688 13.5984 7.75 14.6828C7.74688 14.7531 7.80469 14.8125 7.875 14.8125H8.62656C8.69219 14.8125 8.74688 14.7609 8.75156 14.6937C8.8125 13.6125 9.71406 12.75 10.8125 12.75C11.9109 12.75 12.8125 13.6125 12.8734 14.6937C12.8766 14.7594 12.9313 14.8125 12.9984 14.8125H13.75C13.8219 14.8125 13.8781 14.7531 13.875 14.6828C13.8297 13.5969 13.2156 12.6578 12.325 12.15ZM10.8125 9.23437C11.5031 9.23437 12.0625 9.79375 12.0625 10.4844C12.0625 11.175 11.5031 11.7344 10.8125 11.7344C10.1219 11.7344 9.5625 11.175 9.5625 10.4844C9.5625 9.79375 10.1219 9.23437 10.8125 9.23437Z" fill="black"/>
</svg>
