<svg width="20" height="20" viewBox="0 0 20 20" fill="none" xmlns="http://www.w3.org/2000/svg">
<path d="M17.0314 9.25781H5.60363L12.4435 3.32031C12.5528 3.22461 12.4864 3.04688 12.3419 3.04688H10.6134C10.5372 3.04688 10.465 3.07422 10.4083 3.12305L3.02746 9.52734C2.95986 9.58594 2.90565 9.65838 2.86849 9.73976C2.83133 9.82115 2.8121 9.90956 2.8121 9.99902C2.8121 10.0885 2.83133 10.1769 2.86849 10.2583C2.90565 10.3397 2.95986 10.4121 3.02746 10.4707L10.4513 16.9141C10.4806 16.9395 10.5157 16.9531 10.5529 16.9531H12.34C12.4845 16.9531 12.5509 16.7734 12.4415 16.6797L5.60363 10.7422H17.0314C17.1173 10.7422 17.1876 10.6719 17.1876 10.5859V9.41406C17.1876 9.32812 17.1173 9.25781 17.0314 9.25781Z" fill="#3C2DFF"/>
</svg>
