<svg width="16" height="16" viewBox="0 0 16 16" fill="none" xmlns="http://www.w3.org/2000/svg">
<path d="M13.8315 6.97336L13.8284 6.96086L12.0752 2.50618C11.9971 2.25461 11.7643 2.08118 11.5002 2.08118H4.39399C4.12836 2.08118 3.89242 2.25774 3.81742 2.51243L2.17836 6.9218L2.17367 6.93274L2.17055 6.94524C2.15024 7.0218 2.14399 7.09993 2.15492 7.17649C2.15336 7.20149 2.1518 7.22649 2.1518 7.25149V12.9687C2.15221 13.2205 2.25243 13.4619 2.4305 13.64C2.60857 13.818 2.84997 13.9183 3.1018 13.9187H12.9018C13.4252 13.9187 13.8518 13.4921 13.8534 12.9687V7.25149C13.8534 7.23118 13.8534 7.21086 13.8518 7.19368C13.858 7.11711 13.8518 7.04368 13.8315 6.97336ZM9.20961 6.30149L9.20492 6.5468C9.19242 7.24836 8.70805 7.72024 8.00023 7.72024C7.65492 7.72024 7.35805 7.6093 7.14398 7.39836C6.92992 7.18743 6.81274 6.89368 6.80648 6.5468L6.8018 6.30149H3.58617L4.82836 3.28118H11.0659L12.3424 6.30149H9.20961ZM3.35023 7.50149H5.80805C6.18774 8.39368 6.99555 8.92024 8.0018 8.92024C8.52836 8.92024 9.01742 8.77336 9.41273 8.49524C9.75961 8.25149 10.0299 7.91086 10.2049 7.50149H12.6502V12.7187H3.35023V7.50149Z" fill="black"/>
</svg>
